<svg xmlns="http://www.w3.org/2000/svg" xmlns:xlink="http://www.w3.org/1999/xlink" width="200" height="401" viewBox="0 0 200 401">
  <defs>
    <clipPath id="clip-body">
      <rect width="200" height="401"/>
    </clipPath>
  </defs>
  <g id="body" clip-path="url(#clip-body)">
    <g id="Group_180" data-name="Group 180" transform="translate(-49.08 -398.645)">
      <g id="Group_179" data-name="Group 179" transform="translate(77.08 398.95)">
        <path id="Path_312" data-name="Path 312" d="M204.841,420.109a22.069,22.069,0,0,0-4.6-3.692l-2.159-1.164a51.3,51.3,0,0,0-6.618-2.613l-.852-.284a145.136,145.136,0,0,0-16.785-3.976q-6.561-1.335-8.634-6.192a12.848,12.848,0,0,1-.88-3.238H129.8a12.085,12.085,0,0,1-.852,3.238q-2.073,4.857-8.634,6.192a144.23,144.23,0,0,0-16.7,3.976q-.767.256-1.477.483l-1.392.483q-.994.369-1.96.767l-2.9,1.306a22.985,22.985,0,0,0-6.589,4.8,13.437,13.437,0,0,0-3.323,6.362q-1.079,5.311-2.13,12.667-.88,9.543.341,28.089a151.407,151.407,0,0,0-1.59,21.3,54.85,54.85,0,0,1-2.215,16.473q-2.613,8.719-2.954,56.689Q76.3,579.157,78.824,591a71.227,71.227,0,0,1,8.464,11.985q12.837,10.2,15.45,7.271.4-1.079-.909-1.9a6.626,6.626,0,0,0-1.335-.71q-6.845-3.351-8.946-12.269a38.242,38.242,0,0,1-.909-7.64q.8-3.38,3.039,2.7a34.128,34.128,0,0,0,5.6,10.054q1.392,1.562,4.033.511,1.335-1.477-2.272-6.987a21.656,21.656,0,0,1-2.272-9.912,16.432,16.432,0,0,0-6.646-13.86q-1.25-1.7-1.25-7.328,1.306-19.427,6.788-32.775a105.5,105.5,0,0,0,6.277-38.6q.937-10.679,7.328-30.872a48.013,48.013,0,0,0-6.248-13.15,48.013,48.013,0,0,1,6.248,13.15q5.169,16.388,5.084,44.164-8.151,22.3-9.571,39.677a305.57,305.57,0,0,0,1.96,59.047q1.676,12.014,4.374,23.346a84.132,84.132,0,0,1,3.181,27.493,70.161,70.161,0,0,1-2.925,15.962q-6.277,28.259,5,60.381,4.039,11.088,4.459,26.271.021.3.028.6l-.057,1.023q-.042,1.164-.17,2.215a30.946,30.946,0,0,1-.852,5.2,40.344,40.344,0,0,1-5.453,12.1q-3.976,4.431,1.193,6.674,9.486,4.033,17.552,3.153,6.788-.369,5.993-8.748l-2.159-13.178h-.028l-.4-2.471q-.2-1.352-.369-2.726-.172-1.772-.284-3.579v-.085q0-.085,0-.17a424.75,424.75,0,0,1,3.209-60.666,129.337,129.337,0,0,0,1.25-29.878,63.114,63.114,0,0,0,2.244-29.14,275.264,275.264,0,0,1-.256-33.769q.426-8.776,1.448-17.581,2.5-14.172,1.363-23.886a7.6,7.6,0,0,0,3.266-.085q-1.164,9.77,1.363,23.914.994,8.833,1.477,17.637a286.083,286.083,0,0,1-.341,33.713,63.217,63.217,0,0,0,2.272,29.112,130.682,130.682,0,0,0,1.221,29.907,425.694,425.694,0,0,1,3.209,60.893q-.055.784-.142,1.562a3.891,3.891,0,0,1-.057.54q-.059.784-.142,1.562-.162,1.369-.369,2.726l-2.556,15.422q-.8,8.606,5.993,8.975,8.057.886,17.552-3.153,5.177-2.238,1.193-6.674a37.763,37.763,0,0,1-6.334-17.3q-.068-.778-.114-1.562.007-.267,0-.54,0-.085,0-.17,0-.511.028-.966.312-15.592,4.431-26.953,11.3-32.122,5-60.353a71.836,71.836,0,0,1-2.954-15.962,86.219,86.219,0,0,1,3.209-27.549q2.7-11.247,4.374-23.232a306.164,306.164,0,0,0,1.96-59.1q-1.392-17.325-9.571-39.705-.114-27.521,5-43.852a48.922,48.922,0,0,1,6.334-13.462,48.922,48.922,0,0,0-6.334,13.462q6.334,19.966,7.242,30.588a105.588,105.588,0,0,0,6.277,38.626q5.481,13.349,6.816,32.775,0,5.652-1.278,7.3a16.431,16.431,0,0,0-6.618,13.888,21.309,21.309,0,0,1-2.3,9.884q-3.607,5.538-2.272,7.015,2.67,1.022,4.061-.54a34.108,34.108,0,0,0,5.567-10.026q2.244-6.135,3.039-2.7a38.464,38.464,0,0,1-.909,7.612q-2.073,8.947-8.918,12.326a3.827,3.827,0,0,0-1.363.682q-1.307.824-.88,1.874,1.846,2.869,15.45-7.271a68.08,68.08,0,0,1,8.464-11.957q2.528-11.843,1.392-29.2-.369-48.027-2.954-56.718a55.063,55.063,0,0,1-2.215-16.53,147.817,147.817,0,0,0-1.619-21.216Q212,451.209,212,451.691q-.8-6.845-1.619-12.468-1.079-7.356-2.159-12.667a13.4,13.4,0,0,0-3.38-6.447m1.619,75.463q-5.254-.767-8.35,4.147,3.1-4.913,8.35-4.147M90.752,495.6q5.283-.738,8.378,4.175-3.1-4.913-8.378-4.175m84.182,158.367q-7.384,7.044-13.832,0,6.447,7.044,13.832,0m-52.486.085q7.384,6.987,13.86,0Q129.833,661.039,122.448,654.052Z" transform="translate(-77.08 -398.95)" fill="none"/>
      </g>
      <path id="Path_313" data-name="Path 313" d="M186.039,460.894q6.334,19.966,7.242,30.588a105.588,105.588,0,0,0,6.277,38.626q5.481,13.349,6.816,32.775,0,5.652-1.278,7.3a16.431,16.431,0,0,0-6.618,13.888,21.309,21.309,0,0,1-2.3,9.884q-3.607,5.538-2.272,7.015,2.67,1.022,4.061-.54a34.108,34.108,0,0,0,5.567-10.026q2.244-6.135,3.039-2.7a38.464,38.464,0,0,1-.909,7.612q-2.073,8.947-8.918,12.326a3.827,3.827,0,0,0-1.363.682q-1.307.824-.88,1.874,1.846,2.869,15.45-7.271a68.08,68.08,0,0,1,8.464-11.957q2.528-11.843,1.392-29.2-.369-48.027-2.954-56.718a55.063,55.063,0,0,1-2.215-16.53,147.817,147.817,0,0,0-1.619-21.216Q212,451.209,212,451.691q-.8-6.845-1.619-12.468-1.079-7.356-2.159-12.667a13.4,13.4,0,0,0-3.38-6.447,22.069,22.069,0,0,0-4.6-3.692l-2.159-1.164a51.3,51.3,0,0,0-6.618-2.613l-.852-.284a145.136,145.136,0,0,0-16.785-3.976q-6.561-1.335-8.634-6.192a12.456,12.456,0,0,1-.866-3.238m-34.508,0a12.456,12.456,0,0,1-.866,3.238q-2.073,4.857-8.634,6.192a144.23,144.23,0,0,0-16.7,3.976q-.767.256-1.477.483l-1.392.483q-.994.369-1.96.767l-2.9,1.306a22.985,22.985,0,0,0-6.589,4.8,13.437,13.437,0,0,0-3.323,6.362q-1.079,5.311-2.13,12.667-.88,9.543.341,28.089a151.407,151.407,0,0,0-1.59,21.3,54.85,54.85,0,0,1-2.215,16.473q-2.613,8.719-2.954,56.689Q76.3,579.157,78.824,591a71.227,71.227,0,0,1,8.464,11.985q12.837,10.2,15.45,7.271.4-1.079-.909-1.9a6.626,6.626,0,0,0-1.335-.71q-6.845-3.351-8.946-12.269a38.242,38.242,0,0,1-.909-7.64q.8-3.38,3.039,2.7a34.128,34.128,0,0,0,5.6,10.054q1.392,1.562,4.033.511,1.335-1.477-2.272-6.987a21.656,21.656,0,0,1-2.272-9.912,16.432,16.432,0,0,0-6.646-13.86q-1.25-1.7-1.25-7.328,1.306-19.427,6.788-32.775a105.5,105.5,0,0,0,6.277-38.6q.937-10.679,7.328-30.872a48.013,48.013,0,0,0-6.248-13.15m101.45,48.055q-5.254-.767-8.35,4.147m-12.071-38.825q-5.112,16.331-5,43.852,8.18,22.38,9.571,39.705a306.164,306.164,0,0,1-1.96,59.1q-1.676,11.985-4.374,23.232a86.219,86.219,0,0,0-3.209,27.549,71.836,71.836,0,0,0,2.954,15.962q6.305,28.231-5,60.353-4.118,11.361-4.431,26.953-.028.454-.028.966,0,.085,0,.17.007.273.014.54.031.784.1,1.562a37.763,37.763,0,0,0,6.334,17.3q3.984,4.436-1.193,6.674-9.495,4.039-17.552,3.153-6.788-.369-5.993-8.975l2.556-15.422q.207-1.358.369-2.726.084-.778.156-1.562.033-.267.057-.54.073-.778.128-1.562a425.694,425.694,0,0,0-3.209-60.893,130.682,130.682,0,0,1-1.221-29.907,63.217,63.217,0,0,1-2.272-29.112,286.083,286.083,0,0,0,.341-33.713q-.483-8.8-1.477-17.637-2.528-14.144-1.363-23.914a7.6,7.6,0,0,1-3.266.085q1.136,9.713-1.363,23.886-1.022,8.8-1.448,17.581a275.264,275.264,0,0,0,.256,33.769,63.114,63.114,0,0,1-2.244,29.14,129.337,129.337,0,0,1-1.25,29.878,424.75,424.75,0,0,0-3.209,60.666q0,.085,0,.17v.085q.112,1.806.3,3.579.185,1.363.383,2.726l.412,2.471,2.144,13.178q.8,8.379-5.993,8.748-8.066.881-17.552-3.153-5.169-2.244-1.193-6.674a40.344,40.344,0,0,0,5.453-12.1,30.946,30.946,0,0,0,.852-5.2q.128-1.051.17-2.215l.057-1.023q-.007-.3-.014-.6-.434-15.183-4.473-26.271-11.275-32.122-5-60.381a70.161,70.161,0,0,0,2.925-15.962A84.132,84.132,0,0,0,113.1,626.9q-2.7-11.332-4.374-23.346a305.57,305.57,0,0,1-1.96-59.047q1.42-17.382,9.571-39.677.085-27.777-5.084-44.164m81.115-13.235a48.922,48.922,0,0,0-6.334,13.462M90.752,495.6q5.283-.738,8.378,4.175m75.8,154.192q-7.384,7.044-13.832,0M138.879,766.039l-.412-2.471q-.2-1.352-.355-2.726m-15.663-106.79q7.384,6.987,13.86,0" transform="translate(0 0)" fill="none" stroke="#000" stroke-linecap="round" stroke-linejoin="round" stroke-width="3"/>
    </g>
  </g>
</svg>
