<svg xmlns="http://www.w3.org/2000/svg" xmlns:xlink="http://www.w3.org/1999/xlink" width="200" height="401" viewBox="0 0 200 401">
  <defs>
    <clipPath id="clip-body">
      <rect width="200" height="401"/>
    </clipPath>
  </defs>
  <g id="body" clip-path="url(#clip-body)">
    <g id="Dress_Male" data-name="Dress Male" transform="translate(-53.702 -404.218)">
      <g id="Group_174" data-name="Group 174" transform="translate(84.054 411.65)">
        <g id="Group_173" data-name="Group 173">
          <path id="Path_298" data-name="Path 298" d="M212.194,998.869l1.743-5.11-1.684-.118L188.71,991.9l-1.891-.148v7.119h25.375m-67.144-5.11,1.743,5.11h25.375V991.75l-1.891.118L146.7,993.641Z" transform="translate(-109.014 -649.027)" fill="#083a55"/>
          <path id="Path_299" data-name="Path 299" d="M207.177,721.727l-12.791,3.161L182.6,719.6l10.309,7.09-9.955.384,12.17,2.718,1.241,55.624,2.216-54.235,6.646,1.359L198.2,727.93Z" transform="translate(-124.379 -537.663)" fill="#01151f"/>
          <path id="Path_300" data-name="Path 300" d="M205.781,656.58q-.663.011-1.329.03-1.233-.018-2.452-.03V686.71q5.967.443,5.938-4.549V656.55Q206.863,656.558,205.781,656.58Z" transform="translate(-132.318 -511.863)" fill="#023855"/>
          <path id="Path_301" data-name="Path 301" d="M125.756,661.626a456.652,456.652,0,0,0,3.19,65.077q.8,7.236,1.27,14.031a237.4,237.4,0,0,1,.118,36.1,215.706,215.706,0,0,0,8.419,79.344v.3l23.573-1.772,6.646-84.4,2.836-66.317-12.171-2.718,9.955-.384-10.309-7.09,11.786,5.288,12.791-3.161-8.98,6.2,7.031,4.608-6.646-1.359-2.215,54.235.236,10.989,7.474,84.13,23.543,1.743.03-.3a215.627,215.627,0,0,0,8.419-79.344,240.72,240.72,0,0,1,.089-36.1q.482-6.908,1.27-14.3a2.249,2.249,0,0,0,.03-.325A457.214,457.214,0,0,0,217.3,661.39a151.591,151.591,0,0,0-40.617-4.845v25.611q.03,4.992-5.938,4.549V656.575h-1.152Q144.729,656.571,125.756,661.626Z" transform="translate(-101.063 -511.858)" fill="#012a43"/>
          <path id="Path_302" data-name="Path 302" d="M112.262,478.647l-.059-.059L86.06,457.969q-2.422.65-1.92,8.064,9.453,7.474,26.379,14.593,2.422.354,1.743-1.92v-.059m82.062-.325-.059.118q-.679,2.274,1.743,1.92,16.926-7.119,26.379-14.593.5-7.415-1.92-8.064l-26.143,20.619m-9.807-64.515-4.579-2.156a30.844,30.844,0,0,1-10.25,10.6l-.354.236a31.575,31.575,0,0,1-16.277,3.87q-9.925-.118-16.483-3.87-.207-.118-.384-.236a30.845,30.845,0,0,1-10.25-10.6l-4.579,2.156q12.318,17.606,31.4,17.606Q172.228,431.412,184.517,413.806Z" transform="translate(-84.054 -411.65)" fill="#65b0b3"/>
          <path id="Path_303" data-name="Path 303" d="M217.442,428.77q-4.756-8.36-31.755-13.47-12.289,17.606-31.755,17.606-19.083,0-31.4-17.606-.356.072-.709.148-25.653,5.221-30.4,13.588-5.713,10.851-4.195,30.426l26.143,20.619.059.059v.059q5.494,7.237,5.524,25.641-.116,3.829-.5,7.681a119.8,119.8,0,0,1-5.288,24.725,141.928,141.928,0,0,0-4.52,18.285q-.6,3.758-.8,6.971l2.068-.591q18.973-5.055,43.837-5.051h1.152q1.219.011,2.452.03.666-.018,1.329-.03,1.082-.022,2.156-.03a151.6,151.6,0,0,1,40.617,4.845q1.034.266,2.068.561a66.538,66.538,0,0,0-.768-6.706,136.994,136.994,0,0,0-4.549-18.551,118.652,118.652,0,0,1-5.288-24.725q-.384-3.84-.5-7.68.308-22.623,3.013-25.7l.059-.059L221.636,459.2Q222.168,437.455,217.442,428.77Z" transform="translate(-85.223 -413.144)" fill="#4e989e"/>
        </g>
        <path id="Path_304" data-name="Path 304" d="M184.517,413.806l-4.579-2.156a30.844,30.844,0,0,1-10.25,10.6l-.354.236a31.575,31.575,0,0,1-16.277,3.87q-9.925-.118-16.483-3.87-.207-.118-.384-.236a30.845,30.845,0,0,1-10.25-10.6l-4.579,2.156q12.318,17.606,31.4,17.606,19.467,0,31.755-17.606,27,5.11,31.756,13.47,4.726,8.685,4.195,30.426,2.422.65,1.92,8.064-9.453,7.474-26.379,14.593-2.422.354-1.743-1.92v-.059q-2.705,3.076-3.013,25.7.118,3.84.5,7.68a118.651,118.651,0,0,0,5.288,24.725,136.993,136.993,0,0,1,4.549,18.551,66.537,66.537,0,0,1,.768,6.706q-1.034-.3-2.068-.561a458.589,458.589,0,0,1-3.146,64.722q-.018.163-.03.325-.8,7.389-1.285,14.3a240.732,240.732,0,0,0-.089,36.1,215.626,215.626,0,0,1-8.419,79.344m-.015.3,1.669.118-1.743,5.111H161.86v-7.119l1.891.148-7.474-84.13-.236-10.989L154.8,603.778,151.964,670.1l-6.646,84.41,1.891-.133v7.119H121.833l-1.743-5.111,1.669-.118m-.015-.3a215.706,215.706,0,0,1-8.419-79.344,238.562,238.562,0,0,0-.1-36.1q-.484-6.8-1.285-14.031a456.522,456.522,0,0,1-3.19-65.062q-1.04.283-2.068.576a68.525,68.525,0,0,1,.812-6.971,140.015,140.015,0,0,1,4.5-18.285,119.808,119.808,0,0,0,5.288-24.725q.386-3.851.5-7.68-.03-18.4-5.524-25.641.679,2.275-1.743,1.92-16.926-7.119-26.379-14.593-.5-7.415,1.92-8.064-1.518-19.576,4.195-30.426,4.744-8.367,30.4-13.588.353-.076.709-.148m72.9,64.574.059-.059L220.467,457.7m-134.407.266L112.2,478.588l.059.059v.059m-3.515,82.727q18.973-5.07,43.837-5.066h1.152q1.219.011,2.452.03.666-.018,1.329-.03,1.082-.022,2.156-.03a151.6,151.6,0,0,1,40.617,4.845M187.309,756.263l-23.558-1.743m-41.991,1.743,23.558-1.758" transform="translate(-84.054 -411.65)" fill="none" stroke="#000" stroke-linecap="round" stroke-linejoin="round" stroke-width="1"/>
      </g>
    </g>
  </g>
</svg>
