<svg xmlns="http://www.w3.org/2000/svg" xmlns:xlink="http://www.w3.org/1999/xlink" width="200" height="200" viewBox="0 0 200 200">
  <defs>
    <clipPath id="clip-head">
      <rect width="200" height="200"/>
    </clipPath>
  </defs>
  <g id="head" clip-path="url(#clip-head)">
    <g id="Eyes0001" transform="translate(-65.45 -56.95)">
      <g id="Group_115" data-name="Group 115" transform="translate(178.845 167.95)">
        <g id="Group_114" data-name="Group 114" transform="translate(0.429 1.418)">
          <path id="Path_172" data-name="Path 172" d="M237.349,182.808a17.688,17.688,0,0,0,4.437-3.149,18.635,18.635,0,0,1-4.581,2.348,32.5,32.5,0,0,1-10.278.544,36.687,36.687,0,0,0,10.421.258M220.2,180.6a22.8,22.8,0,0,1,7.987-6.155,23.8,23.8,0,0,1,8.446-2.09h.029a28.3,28.3,0,0,1,7.816.859,10.754,10.754,0,0,1-1.832,5.554,23.536,23.536,0,0,0,4.437-7.1,25.025,25.025,0,0,0-12.854-.744q-1.489.286-3.035.744a16.971,16.971,0,0,0-1.889.773q-7.043,3.092-9.1,8.159m12.826-7.272a2.472,2.472,0,0,0-1.775.716,2.363,2.363,0,0,0-.744,1.775,2.482,2.482,0,0,0,.286,1.174,2.646,2.646,0,0,0,.458.6,2.508,2.508,0,0,0,4.18-1.059,2.249,2.249,0,0,0,.115-.716,2.363,2.363,0,0,0-.744-1.775,2.472,2.472,0,0,0-1.775-.716m-1.775.716a2.559,2.559,0,0,1,3.55,0,2.363,2.363,0,0,1,.744,1.775,2.249,2.249,0,0,1-.115.716q.716-.945,1.317-.716.916.143,1.031,1.6a4.868,4.868,0,0,0,.258-1.6,4.82,4.82,0,0,0-1.374-3.464h-.029a23.8,23.8,0,0,0-8.446,2.09,5.422,5.422,0,0,0-.172,1.374,5.15,5.15,0,0,0,.4,2.033q-.229-1.317.887-1.575a1.3,1.3,0,0,1,1.489.716,2.482,2.482,0,0,1-.286-1.174,2.363,2.363,0,0,1,.744-1.775m5.411-.658a.857.857,0,0,1,.258.63.892.892,0,0,1-.258.658.857.857,0,0,1-.63.258.839.839,0,0,1-.888-.916.914.914,0,0,1,.229-.63.955.955,0,0,1,.658-.258A.857.857,0,0,1,236.662,173.389Z" transform="translate(-220.2 -170.427)" fill="#010101"/>
          <path id="Path_173" data-name="Path 173" d="M228.416,179.291a5.15,5.15,0,0,1-.4-2.033,5.422,5.422,0,0,1,.172-1.374,22.8,22.8,0,0,0-7.987,6.155l3.636,1.145a24.376,24.376,0,0,0,3.092.8,32.5,32.5,0,0,0,10.278-.544,18.634,18.634,0,0,0,4.581-2.348q.429-.429.859-.887a10.754,10.754,0,0,0,1.832-5.554,28.3,28.3,0,0,0-7.816-.859,4.82,4.82,0,0,1,1.374,3.464,4.868,4.868,0,0,1-.258,1.6,4.424,4.424,0,0,1-1.231,1.918,4.693,4.693,0,0,1-3.521,1.489,4.786,4.786,0,0,1-3.55-1.489,4.557,4.557,0,0,1-1.059-1.489m8.5-3.836a.88.88,0,0,0-.887-.888.955.955,0,0,0-.658.258.914.914,0,0,0-.229.63.839.839,0,0,0,.888.916.857.857,0,0,0,.63-.258A.892.892,0,0,0,236.919,175.455Z" transform="translate(-220.2 -171.863)" fill="#fdfdfe"/>
          <path id="Path_174" data-name="Path 174" d="M235.408,180.275q-1.117.258-.887,1.575a4.556,4.556,0,0,0,1.059,1.489,4.786,4.786,0,0,0,3.55,1.489,4.693,4.693,0,0,0,3.521-1.489,4.424,4.424,0,0,0,1.231-1.918q-.114-1.46-1.031-1.6-.6-.229-1.317.716a2.5,2.5,0,0,1-4.18,1.059,2.645,2.645,0,0,1-.458-.6A1.3,1.3,0,0,0,235.408,180.275Z" transform="translate(-226.304 -174.421)" fill="#a36707"/>
        </g>
        <path id="Path_175" data-name="Path 175" d="M230.472,175.937a2.483,2.483,0,0,1-.286-1.174,2.363,2.363,0,0,1,.744-1.775,2.559,2.559,0,0,1,3.55,0,2.363,2.363,0,0,1,.744,1.775,2.249,2.249,0,0,1-.115.716q.716-.945,1.317-.716.916.143,1.031,1.6a4.869,4.869,0,0,0,.258-1.6,4.82,4.82,0,0,0-1.374-3.464h-.029a23.8,23.8,0,0,0-8.446,2.09,5.422,5.422,0,0,0-.172,1.374,5.15,5.15,0,0,0,.4,2.033q-.229-1.317.887-1.575a1.3,1.3,0,0,1,1.489.716,2.645,2.645,0,0,0,.458.6,2.508,2.508,0,0,0,4.18-1.059m-8.5,6.012a24.38,24.38,0,0,1-3.092-.8l-3.636-1.145q2.061-5.067,9.1-8.159a16.973,16.973,0,0,1,1.889-.773q1.546-.458,3.035-.744a25.025,25.025,0,0,1,12.854.744,23.537,23.537,0,0,1-4.437,7.1q-.429.458-.859.887a17.687,17.687,0,0,1-4.437,3.149,36.687,36.687,0,0,1-10.421-.258,32.5,32.5,0,0,0,10.278-.544,18.635,18.635,0,0,0,4.581-2.348m-4.008-2.233a4.424,4.424,0,0,1-1.231,1.918,4.693,4.693,0,0,1-3.521,1.489,4.786,4.786,0,0,1-3.55-1.489A4.557,4.557,0,0,1,228.1,176.8m-6.413-5.1a11.225,11.225,0,0,0-2.233,3.922m.429,3.922a22.8,22.8,0,0,1,7.987-6.155m8.474-2.09a28.3,28.3,0,0,1,7.816.859,10.754,10.754,0,0,1-1.832,5.554M236.6,172.96a.892.892,0,0,1-.258.658.857.857,0,0,1-.63.258.839.839,0,0,1-.887-.916.914.914,0,0,1,.229-.63.955.955,0,0,1,.658-.258.88.88,0,0,1,.887.888Zm-13.942-.429q3.693-3.178,12.625-4.581" transform="translate(-219.45 -167.95)" fill="none" stroke="#000" stroke-linecap="round" stroke-linejoin="round" stroke-width="1"/>
      </g>
      <g id="Group_117" data-name="Group 117" transform="translate(124.45 167.95)">
        <g id="Group_116" data-name="Group 116" transform="translate(0 1.418)">
          <path id="Path_176" data-name="Path 176" d="M141.026,175.822a2.363,2.363,0,0,0-.744-1.775,2.559,2.559,0,0,0-3.55,0,2.363,2.363,0,0,0-.744,1.775,2.248,2.248,0,0,0,.115.716,2.5,2.5,0,0,0,4.18,1.059,2.645,2.645,0,0,0,.458-.6,2.482,2.482,0,0,0,.286-1.174m-7.529,0a4.869,4.869,0,0,0,.258,1.6q.115-1.46,1.031-1.6.6-.229,1.317.716a2.248,2.248,0,0,1-.115-.716,2.363,2.363,0,0,1,.744-1.775,2.559,2.559,0,0,1,3.55,0,2.363,2.363,0,0,1,.744,1.775A2.482,2.482,0,0,1,140.74,177a1.3,1.3,0,0,1,1.489-.716q1.117.258.887,1.575a5.15,5.15,0,0,0,.4-2.033,5.423,5.423,0,0,0-.172-1.374,23.8,23.8,0,0,0-8.446-2.09h-.029a4.82,4.82,0,0,0-1.374,3.464m1.374-2.433a.857.857,0,0,1,.63-.258.956.956,0,0,1,.658.258.914.914,0,0,1,.229.63.839.839,0,0,1-.887.916.857.857,0,0,1-.63-.258.892.892,0,0,1-.258-.658.857.857,0,0,1,.258-.63m-.544,8.617a18.635,18.635,0,0,1-4.581-2.348,17.688,17.688,0,0,0,4.437,3.149,36.687,36.687,0,0,0,10.421-.258,32.5,32.5,0,0,1-10.278-.544m6.012-10.335q-1.546-.458-3.035-.744a25.025,25.025,0,0,0-12.854.744,23.537,23.537,0,0,0,4.437,7.1,10.754,10.754,0,0,1-1.832-5.554,28.3,28.3,0,0,1,7.816-.859h.029a23.8,23.8,0,0,1,8.446,2.09,22.8,22.8,0,0,1,7.987,6.155q-2.061-5.067-9.1-8.159A16.972,16.972,0,0,0,140.339,171.671Z" transform="translate(-124.45 -170.427)" fill="#010101"/>
          <path id="Path_177" data-name="Path 177" d="M150.062,181.849q.229-1.317-.888-1.575a1.3,1.3,0,0,0-1.489.716,2.645,2.645,0,0,1-.458.6,2.508,2.508,0,0,1-4.18-1.059q-.716-.945-1.317-.716-.916.143-1.031,1.6a4.424,4.424,0,0,0,1.231,1.918,4.693,4.693,0,0,0,3.521,1.489,4.786,4.786,0,0,0,3.55-1.489A4.557,4.557,0,0,0,150.062,181.849Z" transform="translate(-131.396 -174.421)" fill="#a36707"/>
          <path id="Path_178" data-name="Path 178" d="M137.446,174.568a.88.88,0,0,0-.887.888.892.892,0,0,0,.258.658.857.857,0,0,0,.63.258.839.839,0,0,0,.887-.916.914.914,0,0,0-.229-.63.955.955,0,0,0-.658-.258m12.2,8.617,3.636-1.145a22.8,22.8,0,0,0-7.987-6.155,5.422,5.422,0,0,1,.172,1.374,5.15,5.15,0,0,1-.4,2.033A4.556,4.556,0,0,1,144,180.78a4.786,4.786,0,0,1-3.55,1.489,4.693,4.693,0,0,1-3.521-1.489,4.424,4.424,0,0,1-1.231-1.918,4.868,4.868,0,0,1-.258-1.6,4.82,4.82,0,0,1,1.374-3.464,28.3,28.3,0,0,0-7.816.859,10.754,10.754,0,0,0,1.832,5.554q.429.458.859.887a18.634,18.634,0,0,0,4.581,2.348,32.5,32.5,0,0,0,10.278.544A24.378,24.378,0,0,0,149.641,183.185Z" transform="translate(-126.395 -171.863)" fill="#fdfdfe"/>
        </g>
        <path id="Path_179" data-name="Path 179" d="M144.6,181.491a24.378,24.378,0,0,0,3.092-.8l3.636-1.145a22.8,22.8,0,0,0-7.987-6.155,5.423,5.423,0,0,1,.172,1.374,5.15,5.15,0,0,1-.4,2.033,4.557,4.557,0,0,1-1.059,1.489,4.786,4.786,0,0,1-3.55,1.489,4.693,4.693,0,0,1-3.521-1.489,4.424,4.424,0,0,1-1.231-1.918,4.869,4.869,0,0,1-.258-1.6,4.82,4.82,0,0,1,1.374-3.464,28.3,28.3,0,0,0-7.816.859,10.754,10.754,0,0,0,1.832,5.554q.429.458.859.887a18.635,18.635,0,0,0,4.581,2.348,32.5,32.5,0,0,0,10.278.544,36.687,36.687,0,0,1-10.421.258,17.688,17.688,0,0,1-4.437-3.149m19.783-6.9a11.225,11.225,0,0,1,2.233,3.922m-.429,3.922q-2.061-5.067-9.1-8.159a16.975,16.975,0,0,0-1.89-.773q-1.546-.458-3.035-.744a25.025,25.025,0,0,0-12.854.744,23.537,23.537,0,0,0,4.437,7.1m11.852-1.775a1.3,1.3,0,0,1,1.489-.716q1.117.258.887,1.575m-2.376-.859a2.483,2.483,0,0,0,.286-1.174,2.363,2.363,0,0,0-.744-1.775,2.559,2.559,0,0,0-3.55,0,2.363,2.363,0,0,0-.744,1.775,2.249,2.249,0,0,0,.115.716,2.5,2.5,0,0,0,4.18,1.059A2.644,2.644,0,0,0,140.74,175.937Zm-6.127-2.977a.892.892,0,0,0,.258.658.857.857,0,0,0,.63.258.839.839,0,0,0,.887-.916.914.914,0,0,0-.229-.63.955.955,0,0,0-.658-.258.88.88,0,0,0-.887.888Zm8.732.429a23.8,23.8,0,0,0-8.446-2.09h-.029m1.231,4.18q-.716-.945-1.317-.716-.916.143-1.031,1.6m14.8-3.836q-3.693-3.178-12.625-4.581" transform="translate(-124.45 -167.95)" fill="none" stroke="#000" stroke-linecap="round" stroke-linejoin="round" stroke-width="1"/>
      </g>
    </g>
  </g>
</svg>
