<svg xmlns="http://www.w3.org/2000/svg" xmlns:xlink="http://www.w3.org/1999/xlink" width="200" height="200" viewBox="0 0 200 200">
  <defs>
    <clipPath id="clip-head">
      <rect width="200" height="200"/>
    </clipPath>
  </defs>
  <g id="head" clip-path="url(#clip-head)">
    <g id="charactor" transform="translate(-55.08 -89.645)">
      <g id="Group_184" data-name="Group 184" transform="translate(89.97 141.645)">
        <g id="Group_183" data-name="Group 183" transform="translate(0)">
          <path id="Path_316" data-name="Path 316" d="M192.808,176.58q-5.156-2.552-9.178,4.331-3.222,12.142-7.193,24-.851,2.939-1.753,5.543,1.083,2.733,4.357,1.624,9.848-5.9,15.519-19.567,3.841-11.755-1.753-15.932m-109.8,6.368q-.284-1.005-.541-2.011a.92.92,0,0,1-.077-.232q-3.944-6.651-9.023-4.125-5.646,4.176-1.779,15.932,5.672,13.663,15.519,19.567,3.3,1.109,4.486-1.908l-8.585-27.223m101.855-48.723q-9.564-23.331-37.432-29.982-25.831-5.362-47,7.27Q78.914,126.722,78.5,150.027A112.813,112.813,0,0,0,82.394,180.7a.92.92,0,0,0,.077.232q.258,1.005.541,2.011L91.6,210.171q3.738,10.75,10.286,17.221,2.114,2.165,4.254,4.176.644.619,1.289,1.212,2.81,2.6,5.672,4.95a113.716,113.716,0,0,0,9.822,7.27q2.32,1.547,4.718,2.939,6.084,3.583,12.761-.644,1.624-1.16,3.222-2.294,5.826-4.279,11.034-8.61,2.423-2.062,4.743-4.1.67-.619,1.289-1.212,2.784-2.578,5.362-5.13,4.95-5.027,8.636-15.494.9-2.6,1.753-5.543,3.97-11.859,7.193-24,1.237-4.795,2.4-9.667A61.739,61.739,0,0,0,184.868,134.224Z" transform="translate(-70.02 -102.645)" fill="none"/>
        </g>
        <path id="Path_317" data-name="Path 317" d="M203.579,219.909q1.237-4.8,2.4-9.667a61.738,61.738,0,0,0-1.16-37.019q-9.564-23.33-37.431-29.982-25.831-5.362-47,7.27-21.526,15.21-21.938,38.515a112.807,112.807,0,0,0,3.893,30.677.92.92,0,0,0,.077.232q.258,1.005.541,2.011l8.585,27.223q3.738,10.75,10.286,17.221,2.114,2.165,4.254,4.176.644.619,1.289,1.212,2.81,2.6,5.672,4.95a113.728,113.728,0,0,0,9.822,7.27q2.32,1.547,4.718,2.939,6.084,3.583,12.761-.644,1.624-1.16,3.222-2.294,5.826-4.279,11.034-8.61,2.423-2.062,4.743-4.1.67-.619,1.289-1.212,2.784-2.578,5.362-5.13,4.95-5.027,8.636-15.494.9-2.6,1.753-5.543Q200.356,232.051,203.579,219.909Zm0,0q4.022-6.883,9.178-4.331,5.594,4.176,1.753,15.932-5.672,13.663-15.519,19.567-3.274,1.109-4.357-1.624m-92.29-29.75q-3.944-6.651-9.023-4.125-5.646,4.176-1.779,15.932,5.671,13.663,15.519,19.567,3.3,1.109,4.486-1.908" transform="translate(-89.961 -141.627)" fill="none" stroke="#000" stroke-linecap="round" stroke-linejoin="round" stroke-width="3"/>
      </g>
    </g>
  </g>
</svg>
