<svg xmlns="http://www.w3.org/2000/svg" xmlns:xlink="http://www.w3.org/1999/xlink" width="200" height="401" viewBox="0 0 200 401">
  <defs>
    <clipPath id="clip-body">
      <rect width="200" height="401"/>
    </clipPath>
  </defs>
  <g id="body" clip-path="url(#clip-body)">
    <g id="Shoe" transform="translate(-51.054 -396.978)">
      <g id="Group_168" data-name="Group 168" transform="translate(108.726 750.389)">
        <g id="Group_167" data-name="Group 167" transform="translate(0 0.028)">
          <path id="Path_284" data-name="Path 284" d="M1333.786,1112.6q2.424,2.029,7.584,1.741,8.531-2.745,9.551-7.921a12.444,12.444,0,0,1,4.382-6.573,11.072,11.072,0,0,0-.674-6.348q-5.9,2.75-5.955,8.6.251,5.082-3.371,7.584a11.926,11.926,0,0,1-6.348,2.022,2.379,2.379,0,0,1-1.91-1.629q-2.417-4.266-6.4-3.82a6.692,6.692,0,0,0-5.618,3.876,3.122,3.122,0,0,1-3.146.843q-4.109-1.323-2.921-10.955-.284.855-.506,1.685-2.262,9.11,4.326,12.641a5.887,5.887,0,0,0,3.933-1.685Q1330.148,1109.516,1333.786,1112.6Z" transform="translate(-1317.871 -1067.828)" fill="#e1d6d1"/>
          <path id="Path_285" data-name="Path 285" d="M1335.476,1129.4a28.536,28.536,0,0,0,9.719-1.348q-5.161.288-7.584-1.742-3.638-3.085-7.079.056a5.886,5.886,0,0,1-3.933,1.685Q1328.874,1129.349,1335.476,1129.4Z" transform="translate(-1321.696 -1081.534)" fill="#030101"/>
          <path id="Path_286" data-name="Path 286" d="M1357.073,1056.546q-.133-2.512-7.36-3.146-7.089.269-8.258,2.472a2.36,2.36,0,0,0-.225.843q.008.91,0,1.8a95.3,95.3,0,0,1-.73,11.854q.089,3.747,5.169,4.1,6.2.695,7.865-4.382a40.525,40.525,0,0,0,3.146-10.9Q1356.921,1057.9,1357.073,1056.546Z" transform="translate(-1327.787 -1050.256)" fill="#2b5e31"/>
          <path id="Path_287" data-name="Path 287" d="M1350.458,1050.948q7.227.634,7.36,3.146-.152,1.349-.393,2.641a10.266,10.266,0,0,1,4.157.337l.056-9.045a86.17,86.17,0,0,0-19.438.786v4.607Q1343.37,1051.216,1350.458,1050.948Z" transform="translate(-1328.532 -1047.804)" fill="#f0e8d5"/>
          <path id="Path_288" data-name="Path 288" d="M1328.3,1064.373q-.369,9.068-2.135,11.348a40.109,40.109,0,0,0-6.573,10.674q-1.187,9.633,2.921,10.955a3.122,3.122,0,0,0,3.146-.843,6.693,6.693,0,0,1,5.618-3.876q3.988-.446,6.4,3.82a2.379,2.379,0,0,0,1.91,1.629,11.927,11.927,0,0,0,6.348-2.022q3.621-2.5,3.371-7.584.053-5.845,5.955-8.6a62.149,62.149,0,0,0-1.068-13.708,3.716,3.716,0,0,0-2.64-2.7,10.264,10.264,0,0,0-4.157-.337,40.523,40.523,0,0,1-3.146,10.9q-1.665,5.076-7.865,4.382-5.08-.354-5.169-4.1a95.293,95.293,0,0,0,.73-11.854Q1328.716,1062.109,1328.3,1064.373Z" transform="translate(-1318.509 -1054.206)" fill="#4c844f"/>
        </g>
        <path id="Path_289" data-name="Path 289" d="M129.083,1046.843a39.483,39.483,0,0,1,6.545-10.674q1.767-2.281,2.135-11.348.416-2.264,3.652-1.91.007-.888,0-1.8a2.139,2.139,0,0,1,.225-.815v-4.635a86.174,86.174,0,0,1,19.438-.787l-.028,9.045a3.716,3.716,0,0,1,2.612,2.7,62.227,62.227,0,0,1,1.067,13.708,11.07,11.07,0,0,1,.674,6.349,12.455,12.455,0,0,0-4.382,6.573q-1.02,5.174-9.551,7.922a28.53,28.53,0,0,1-9.719,1.348q-6.6-.05-8.876-1.348-6.588-3.528-4.326-12.641Q128.771,1047.7,129.083,1046.843Zm0,0q-1.216,9.635,2.893,10.955a3.124,3.124,0,0,0,3.146-.843,6.7,6.7,0,0,1,5.618-3.876q3.988-.444,6.4,3.82a2.381,2.381,0,0,0,1.91,1.629,11.9,11.9,0,0,0,6.348-2.023q3.621-2.5,3.371-7.584.052-5.843,5.955-8.6m-23.09-20.028q1.169-2.23,8.258-2.5,7.227.635,7.36,3.146-.151,1.348-.365,2.641a10.367,10.367,0,0,1,4.157.337m-19.635-1.011a95.266,95.266,0,0,1-.73,11.854q.089,3.747,5.169,4.1,6.2.7,7.865-4.382a41.221,41.221,0,0,0,3.174-10.9m-24.017,37.584a5.886,5.886,0,0,0,3.933-1.686q3.441-3.14,7.079-.056,2.424,2.028,7.584,1.742" transform="translate(-127.971 -1014.654)" fill="none" stroke="#000" stroke-linecap="round" stroke-linejoin="round" stroke-width="0.2"/>
      </g>
      <g id="Group_169" data-name="Group 169" transform="translate(118.968 760.781)">
        <path id="Path_290" data-name="Path 290" d="M147.267,1041.3a21.965,21.965,0,0,1,7.725.59,26.191,26.191,0,0,1,9.017-.534M148,1033.543a22.66,22.66,0,0,1,8.006,1.208,45.072,45.072,0,0,1,9.129-1.6m-17.753,5.618a29.825,29.825,0,0,1,8.624-4.017,67.416,67.416,0,0,1,9.635,3.9M146.2,1046.97a17.8,17.8,0,0,1,8.792-5.084,18.3,18.3,0,0,1,8.848,5.421" transform="translate(-146.2 -1033.15)" fill="none" stroke="#fff" stroke-linecap="round" stroke-linejoin="round" stroke-width="1"/>
      </g>
      <g id="Group_171" data-name="Group 171" transform="translate(193.08 798.281) rotate(180)">
        <g id="Group_170" data-name="Group 170" transform="translate(0)">
          <path id="Path_291" data-name="Path 291" d="M3.933,3.034A6.048,6.048,0,0,0,0,1.348Q2.247.056,8.876,0A27.841,27.841,0,0,1,18.6,1.348q-5.169-.281-7.584,1.742Q7.36,6.18,3.933,3.034Z" transform="translate(4.898)" fill="#030101"/>
          <path id="Path_292" data-name="Path 292" d="M1.134,14.36a14.811,14.811,0,0,1-.562-1.685Q-1.675,3.574,4.9.034A6.048,6.048,0,0,1,8.831,1.72q3.427,3.146,7.079.056Q18.325-.247,23.494.034q8.539,2.753,9.551,7.921a12.5,12.5,0,0,0,4.382,6.573,11.366,11.366,0,0,1-.674,6.348q-5.9-2.753-5.955-8.6.225-5.056-3.371-7.584a11.685,11.685,0,0,0-6.348-2.022A2.461,2.461,0,0,0,19.168,4.3q-2.416,4.27-6.4,3.82A6.617,6.617,0,0,1,7.146,4.248,3.174,3.174,0,0,0,4,3.405Q-.1,4.753,1.134,14.36Z" transform="translate(0 1.314)" fill="#e1d6d1"/>
          <path id="Path_293" data-name="Path 293" d="M.955,18.619a2.42,2.42,0,0,1-.225-.787v-1.8A102.157,102.157,0,0,0,0,4.18Q.112.416,5.169.079q6.18-.674,7.865,4.382a42.785,42.785,0,0,1,3.2,10.9q.169,1.292.337,2.641-.112,2.528-7.36,3.146Q2.135,20.866.955,18.619Z" transform="translate(12.707 23.572)" fill="#2b5e31"/>
          <path id="Path_294" data-name="Path 294" d="M0,8.258V3.6Q1.18,5.843,8.258,6.124q7.247-.618,7.36-3.146Q15.45,1.629,15.281.337A10.162,10.162,0,0,0,19.438,0V9.045A88.036,88.036,0,0,1,0,8.258Z" transform="translate(13.662 38.596)" fill="#f0e8d5"/>
          <path id="Path_295" data-name="Path 295" d="M12.59,35.624q-3.258.337-3.652-1.91Q8.545,24.669,6.8,22.365A38.882,38.882,0,0,1,.286,11.691Q-.95,2.084,3.151.736A3.174,3.174,0,0,1,6.3,1.579a6.617,6.617,0,0,0,5.618,3.876q3.989.449,6.4-3.82A2.461,2.461,0,0,1,20.23.006a11.685,11.685,0,0,1,6.348,2.022q3.6,2.528,3.371,7.584.056,5.843,5.955,8.6a63.642,63.642,0,0,1-1.067,13.708,3.75,3.75,0,0,1-2.584,2.7,10.162,10.162,0,0,1-4.157.337,42.785,42.785,0,0,0-3.2-10.9q-1.685-5.056-7.865-4.382-5.056.337-5.169,4.1A102.157,102.157,0,0,1,12.59,35.624Z" transform="translate(0.848 3.983)" fill="#4c844f"/>
        </g>
        <path id="Path_296" data-name="Path 296" d="M36.468,32.179a38.883,38.883,0,0,0-6.517-10.674q-1.742-2.3-2.135-11.348-.393-2.247-3.652-1.91v-1.8a2.42,2.42,0,0,0-.225-.787V1A88.036,88.036,0,0,0,4.5.213V9.258a3.75,3.75,0,0,0-2.584,2.7A63.641,63.641,0,0,0,.85,25.662a11.366,11.366,0,0,0-.674,6.348,12.5,12.5,0,0,1,4.382,6.573q1.011,5.169,9.551,7.921a27.841,27.841,0,0,0,9.719,1.348q6.629-.056,8.876-1.348,6.573-3.539,4.326-12.64A14.813,14.813,0,0,0,36.468,32.179Zm0,0Q37.7,41.786,33.6,43.134a3.174,3.174,0,0,1-3.146-.843,6.617,6.617,0,0,0-5.618-3.876q-3.989-.449-6.4,3.82a2.461,2.461,0,0,1-1.91,1.629,11.685,11.685,0,0,1-6.348-2.022Q6.58,39.314,6.8,34.258q-.056-5.843-5.955-8.6M24.164,8.247a102.159,102.159,0,0,0,.73,11.854q-.112,3.764-5.169,4.1-6.18.674-7.865-4.382a42.785,42.785,0,0,1-3.2-10.9Q8.49,7.629,8.322,6.28q.112-2.528,7.36-3.146,7.079.281,8.258,2.528M32.7,46.505a6.048,6.048,0,0,1-3.933-1.685q-3.427-3.146-7.079-.056-2.416,2.023-7.584,1.742M8.659,8.921A10.162,10.162,0,0,0,4.5,9.258" transform="translate(37.602 47.854) rotate(180)" fill="none" stroke="#000" stroke-linecap="round" stroke-linejoin="round" stroke-width="0.2"/>
      </g>
      <g id="Group_172" data-name="Group 172" transform="translate(182.844 774.966) rotate(180)">
        <path id="Path_297" data-name="Path 297" d="M19.438,13.82a17.859,17.859,0,0,0-8.82-5.056,21.1,21.1,0,0,1,7.753-.618M17.641.393A22.933,22.933,0,0,0,9.607,1.629,43.322,43.322,0,0,0,.506,0m9.1,1.629A62.05,62.05,0,0,0,0,5.506M10.618,8.764A24.976,24.976,0,0,0,1.629,8.2m8.989.562A18.334,18.334,0,0,0,1.8,14.157M18.258,5.618A29.6,29.6,0,0,0,9.607,1.629" transform="translate(19.438 14.157) rotate(180)" fill="none" stroke="#fff" stroke-linecap="round" stroke-linejoin="round" stroke-width="1"/>
      </g>
    </g>
  </g>
</svg>
