<svg xmlns="http://www.w3.org/2000/svg" xmlns:xlink="http://www.w3.org/1999/xlink" width="200" height="200" viewBox="0 0 200 200">
  <defs>
    <clipPath id="clip-head">
      <rect width="200" height="200"/>
    </clipPath>
  </defs>
  <g id="head" clip-path="url(#clip-head)">
    <g id="Front_Hair0001" data-name="Front Hair0001" transform="translate(-58.246 -16.036)">
      <g id="Group_142" data-name="Group 142" transform="translate(96.19 50.703)">
        <path id="Path_232" data-name="Path 232" d="M190.086,82.216q17.138,8.02,14.614,31.307,4.01,10.337,3.327,26.287a74.991,74.991,0,0,0,6.832-41.97q-3.3-25.485-26.02-39.356-20.287-10.931-47.108-6.5-24.475,4.6-37.811,24.683-9.772,17.376-7.188,39.772,2.436,16.574,6.475,25.307-1.307-18.653,3.772-27.5-3.3-28.069,22.812-33.683A44.819,44.819,0,0,1,156.2,82.216Q174.73,76.127,190.086,82.216Z" transform="translate(-96.19 -50.703)" fill="#56291d"/>
      </g>
      <path id="Path_233" data-name="Path 233" d="M103.206,141.74q-1.307-18.653,3.772-27.5-3.3-28.069,22.812-33.683A44.819,44.819,0,0,1,156.2,82.216q18.534-6.089,33.891,0,17.138,8.02,14.614,31.307,4.01,10.337,3.327,26.287a74.991,74.991,0,0,0,6.832-41.97q-3.3-25.485-26.02-39.356-20.287-10.931-47.108-6.5-24.475,4.6-37.811,24.683-9.772,17.376-7.188,39.772Q99.166,133.007,103.206,141.74Z" transform="translate(0 0)" fill="none" stroke="#4a221a" stroke-linecap="round" stroke-linejoin="round" stroke-width="3"/>
    </g>
  </g>
</svg>
