<svg xmlns="http://www.w3.org/2000/svg" xmlns:xlink="http://www.w3.org/1999/xlink" width="200" height="200" viewBox="0 0 200 200">
  <defs>
    <clipPath id="clip-head">
      <rect width="200" height="200"/>
    </clipPath>
  </defs>
  <g id="head" clip-path="url(#clip-head)">
    <g id="Mouth0001" transform="translate(-91.6 -101.95)">
      <g id="Group_159" data-name="Group 159" transform="translate(171.6 264.95)">
        <path id="Path_261" data-name="Path 261" d="M175.1,274.385h-.124a15.061,15.061,0,0,0,.824,1.772q3.09,5.768,10.548,7.128a8.458,8.458,0,0,0,3.5.082,11.318,11.318,0,0,1,1.277-.288,4.065,4.065,0,0,1,1.73.041q.494.082,1.154.247a8.458,8.458,0,0,0,3.5-.082q8.529-1.524,11.372-8.9h-.124a34.906,34.906,0,0,0-8.982-.783q-2.843.165-4.9.494-2.019.288-2.637.33-.577,0-1.071-.041-.453-.041-1.236-.124a56.1,56.1,0,0,0-5.851-.659,32.942,32.942,0,0,0-8.282.659,5.3,5.3,0,0,0-.7.124m12.979-9.435a50.685,50.685,0,0,0-7.458,4.2q-2.843,1.854-4.821,3.008-3.461,2.019-4.2,1.854.7.948,3.379.371h.124a5.3,5.3,0,0,1,.7-.124,32.942,32.942,0,0,1,8.282-.659,56.1,56.1,0,0,1,5.851.659q.783.082,1.236.124.494.041,1.071.041.618-.041,2.637-.33,2.06-.33,4.9-.494a34.906,34.906,0,0,1,8.982.783h.124q2.678.577,3.379-.371-1.195.206-9.023-4.862a50.685,50.685,0,0,0-7.458-4.2q-2.349,2.1-3.708,2.184a.119.119,0,0,0-.082.041h-.082a.168.168,0,0,1-.124-.041Q190.429,267.051,188.081,264.95Z" transform="translate(-171.6 -264.95)" fill="rgba(102,0,0,0.3)"/>
      </g>
      <path id="Path_262" data-name="Path 262" d="M174.979,274.385q-2.678.577-3.379-.371.742.165,4.2-1.854,1.978-1.154,4.821-3.008a50.685,50.685,0,0,1,7.458-4.2q2.349,2.1,3.708,2.184a.168.168,0,0,0,.124.041H192a.119.119,0,0,1,.082-.041q1.36-.082,3.708-2.184a50.685,50.685,0,0,1,7.458,4.2q7.828,5.068,9.023,4.862-.7.948-3.379.371-2.843,7.375-11.372,8.9a8.458,8.458,0,0,1-3.5.082q-.659-.165-1.154-.247a4.065,4.065,0,0,0-1.73-.041,11.318,11.318,0,0,0-1.277.288,8.458,8.458,0,0,1-3.5-.082q-7.458-1.36-10.548-7.128a15.061,15.061,0,0,1-.824-1.772h.124a5.3,5.3,0,0,1,.7-.124,32.942,32.942,0,0,1,8.282-.659,56.1,56.1,0,0,1,5.851.659q.783.082,1.236.124.494.041,1.071.041.618-.041,2.637-.33,2.06-.33,4.9-.494a34.906,34.906,0,0,1,8.982.783h.124" fill="none" stroke="#600" stroke-linecap="round" stroke-linejoin="round" stroke-width="1"/>
    </g>
  </g>
</svg>
