<svg xmlns="http://www.w3.org/2000/svg" xmlns:xlink="http://www.w3.org/1999/xlink" width="200" height="200" viewBox="0 0 200 200">
  <defs>
    <clipPath id="clip-head">
      <rect width="200" height="200"/>
    </clipPath>
  </defs>
  <g id="head" clip-path="url(#clip-head)">
    <g id="Nose0001" transform="translate(-84.726 -69)">
      <path id="Path_275" data-name="Path 275" d="M177.464,218q-1.459-4.143.613-10.008a26.5,26.5,0,0,0,.934-3.881,29.166,29.166,0,0,1-6.682,6.536q-5.106,4.318-2.976,9.22a5.506,5.506,0,0,0,5.019,1.955,7.605,7.605,0,0,1,6.069,2.655,5.411,5.411,0,0,0,4.61,1.9h.35a5.411,5.411,0,0,0,4.61-1.9,7.605,7.605,0,0,1,6.069-2.655,5.506,5.506,0,0,0,5.019-1.955q2.13-4.9-2.976-9.22a29.166,29.166,0,0,1-6.682-6.536,26.5,26.5,0,0,0,.934,3.881q2.072,5.865.613,10.008m-13.976-13.889A74.95,74.95,0,0,0,179.565,189m11.876,15.114A74.949,74.949,0,0,1,190.886,189" fill="none" stroke="#000" stroke-linecap="round" stroke-linejoin="round" stroke-width="1"/>
    </g>
  </g>
</svg>
